<?xml version="1.0" encoding="us-ascii" standalone="no"?><svg xmlns="http://www.w3.org/2000/svg" xmlns:xlink="http://www.w3.org/1999/xlink" contentStyleType="text/css" height="392px" preserveAspectRatio="none" style="width:762px;height:392px;background:#FFFFFF;" version="1.1" viewBox="0 0 762 392" width="762px" zoomAndPan="magnify"><defs/><g><rect fill="#FFFFFF" height="272.0625" style="stroke:#181818;stroke-width:1.0;" width="10" x="265" y="67.4297"/><rect fill="#FFFFFF" height="213.7969" style="stroke:#181818;stroke-width:1.0;" width="10" x="395" y="96.5625"/><rect fill="#FFFFFF" height="113.3984" style="stroke:#181818;stroke-width:1.0;" width="10" x="553" y="167.8281"/><line style="stroke:#181818;stroke-width:0.5;stroke-dasharray:5.0,5.0;" x1="99" x2="99" y1="36.2969" y2="357.4922"/><line style="stroke:#181818;stroke-width:0.5;stroke-dasharray:5.0,5.0;" x1="270" x2="270" y1="36.2969" y2="357.4922"/><line style="stroke:#181818;stroke-width:0.5;stroke-dasharray:5.0,5.0;" x1="400" x2="400" y1="36.2969" y2="357.4922"/><line style="stroke:#181818;stroke-width:0.5;stroke-dasharray:5.0,5.0;" x1="558" x2="558" y1="36.2969" y2="357.4922"/><rect fill="#E2E2F0" height="30.2969" rx="2.5" ry="2.5" style="stroke:#181818;stroke-width:0.5;" width="188" x="5" y="5"/><text fill="#000000" font-family="sans-serif" font-size="14" lengthAdjust="spacing" textLength="174" x="12" y="24.9951">SqlSessionFactoryBuilder</text><rect fill="#E2E2F0" height="30.2969" rx="2.5" ry="2.5" style="stroke:#181818;stroke-width:0.5;" width="188" x="5" y="356.4922"/><text fill="#000000" font-family="sans-serif" font-size="14" lengthAdjust="spacing" textLength="174" x="12" y="376.4873">SqlSessionFactoryBuilder</text><rect fill="#E2E2F0" height="30.2969" rx="2.5" ry="2.5" style="stroke:#181818;stroke-width:0.5;" width="134" x="203" y="5"/><text fill="#000000" font-family="sans-serif" font-size="14" lengthAdjust="spacing" textLength="120" x="210" y="24.9951">XMLConfigBuilder</text><rect fill="#E2E2F0" height="30.2969" rx="2.5" ry="2.5" style="stroke:#181818;stroke-width:0.5;" width="134" x="203" y="356.4922"/><text fill="#000000" font-family="sans-serif" font-size="14" lengthAdjust="spacing" textLength="120" x="210" y="376.4873">XMLConfigBuilder</text><rect fill="#E2E2F0" height="30.2969" rx="2.5" ry="2.5" style="stroke:#181818;stroke-width:0.5;" width="106" x="347" y="5"/><text fill="#000000" font-family="sans-serif" font-size="14" lengthAdjust="spacing" textLength="92" x="354" y="24.9951">Configuration</text><rect fill="#E2E2F0" height="30.2969" rx="2.5" ry="2.5" style="stroke:#181818;stroke-width:0.5;" width="106" x="347" y="356.4922"/><text fill="#000000" font-family="sans-serif" font-size="14" lengthAdjust="spacing" textLength="92" x="354" y="376.4873">Configuration</text><rect fill="#E2E2F0" height="30.2969" rx="2.5" ry="2.5" style="stroke:#181818;stroke-width:0.5;" width="142" x="487" y="5"/><text fill="#000000" font-family="sans-serif" font-size="14" lengthAdjust="spacing" textLength="128" x="494" y="24.9951">XMLMapperBuilder</text><rect fill="#E2E2F0" height="30.2969" rx="2.5" ry="2.5" style="stroke:#181818;stroke-width:0.5;" width="142" x="487" y="356.4922"/><text fill="#000000" font-family="sans-serif" font-size="14" lengthAdjust="spacing" textLength="128" x="494" y="376.4873">XMLMapperBuilder</text><rect fill="#FFFFFF" height="272.0625" style="stroke:#181818;stroke-width:1.0;" width="10" x="265" y="67.4297"/><rect fill="#FFFFFF" height="213.7969" style="stroke:#181818;stroke-width:1.0;" width="10" x="395" y="96.5625"/><rect fill="#FFFFFF" height="113.3984" style="stroke:#181818;stroke-width:1.0;" width="10" x="553" y="167.8281"/><polygon fill="#181818" points="253,63.4297,263,67.4297,253,71.4297,257,67.4297" style="stroke:#181818;stroke-width:1.0;"/><line style="stroke:#181818;stroke-width:1.0;" x1="99" x2="259" y1="67.4297" y2="67.4297"/><text fill="#000000" font-family="sans-serif" font-size="13" font-weight="bold" lengthAdjust="spacing" textLength="9" x="106" y="62.3638">1</text><text fill="#000000" font-family="sans-serif" font-size="13" lengthAdjust="spacing" textLength="30" x="119" y="62.3638">build</text><polygon fill="#181818" points="383,92.5625,393,96.5625,383,100.5625,387,96.5625" style="stroke:#181818;stroke-width:1.0;"/><line style="stroke:#181818;stroke-width:1.0;" x1="275" x2="389" y1="96.5625" y2="96.5625"/><text fill="#000000" font-family="sans-serif" font-size="13" font-weight="bold" lengthAdjust="spacing" textLength="9" x="282" y="91.4966">2</text><text fill="#000000" font-family="sans-serif" font-size="13" lengthAdjust="spacing" textLength="36" x="295" y="91.4966">parse</text><line style="stroke:#181818;stroke-width:1.0;" x1="405" x2="447" y1="125.6953" y2="125.6953"/><line style="stroke:#181818;stroke-width:1.0;" x1="447" x2="447" y1="125.6953" y2="138.6953"/><line style="stroke:#181818;stroke-width:1.0;" x1="406" x2="447" y1="138.6953" y2="138.6953"/><polygon fill="#181818" points="416,134.6953,406,138.6953,416,142.6953,412,138.6953" style="stroke:#181818;stroke-width:1.0;"/><text fill="#000000" font-family="sans-serif" font-size="13" font-weight="bold" lengthAdjust="spacing" textLength="9" x="412" y="120.6294">3</text><text fill="#000000" font-family="sans-serif" font-size="13" lengthAdjust="spacing" textLength="121" x="425" y="120.6294">parseConfiguration</text><polygon fill="#181818" points="541,163.8281,551,167.8281,541,171.8281,545,167.8281" style="stroke:#181818;stroke-width:1.0;"/><line style="stroke:#181818;stroke-width:1.0;" x1="405" x2="547" y1="167.8281" y2="167.8281"/><text fill="#000000" font-family="sans-serif" font-size="13" font-weight="bold" lengthAdjust="spacing" textLength="9" x="412" y="162.7622">4</text><text fill="#000000" font-family="sans-serif" font-size="13" lengthAdjust="spacing" textLength="103" x="425" y="162.7622">mapperElement</text><line style="stroke:#181818;stroke-width:1.0;" x1="563" x2="605" y1="196.9609" y2="196.9609"/><line style="stroke:#181818;stroke-width:1.0;" x1="605" x2="605" y1="196.9609" y2="209.9609"/><line style="stroke:#181818;stroke-width:1.0;" x1="564" x2="605" y1="209.9609" y2="209.9609"/><polygon fill="#181818" points="574,205.9609,564,209.9609,574,213.9609,570,209.9609" style="stroke:#181818;stroke-width:1.0;"/><text fill="#000000" font-family="sans-serif" font-size="13" font-weight="bold" lengthAdjust="spacing" textLength="9" x="570" y="191.895">5</text><text fill="#000000" font-family="sans-serif" font-size="13" lengthAdjust="spacing" textLength="136" x="583" y="191.895">configurationElement</text><line style="stroke:#181818;stroke-width:1.0;" x1="563" x2="605" y1="239.0938" y2="239.0938"/><line style="stroke:#181818;stroke-width:1.0;" x1="605" x2="605" y1="239.0938" y2="252.0938"/><line style="stroke:#181818;stroke-width:1.0;" x1="564" x2="605" y1="252.0938" y2="252.0938"/><polygon fill="#181818" points="574,248.0938,564,252.0938,574,256.0938,570,252.0938" style="stroke:#181818;stroke-width:1.0;"/><text fill="#000000" font-family="sans-serif" font-size="13" font-weight="bold" lengthAdjust="spacing" textLength="9" x="570" y="234.0278">6</text><text fill="#000000" font-family="sans-serif" font-size="13" lengthAdjust="spacing" textLength="172" x="583" y="234.0278">bindMapperForNamespace</text><polygon fill="#181818" points="416,277.2266,406,281.2266,416,285.2266,412,281.2266" style="stroke:#181818;stroke-width:1.0;"/><line style="stroke:#181818;stroke-width:1.0;stroke-dasharray:2.0,2.0;" x1="410" x2="557" y1="281.2266" y2="281.2266"/><text fill="#000000" font-family="sans-serif" font-size="13" font-weight="bold" lengthAdjust="spacing" textLength="9" x="422" y="276.1606">7</text><text fill="#000000" font-family="sans-serif" font-size="13" lengthAdjust="spacing" textLength="36" x="435" y="276.1606">parse</text><polygon fill="#181818" points="286,306.3594,276,310.3594,286,314.3594,282,310.3594" style="stroke:#181818;stroke-width:1.0;"/><line style="stroke:#181818;stroke-width:1.0;stroke-dasharray:2.0,2.0;" x1="280" x2="399" y1="310.3594" y2="310.3594"/><text fill="#000000" font-family="sans-serif" font-size="13" font-weight="bold" lengthAdjust="spacing" textLength="9" x="292" y="305.2935">8</text><text fill="#000000" font-family="sans-serif" font-size="13" lengthAdjust="spacing" textLength="30" x="305" y="305.2935">build</text><polygon fill="#181818" points="110,335.4922,100,339.4922,110,343.4922,106,339.4922" style="stroke:#181818;stroke-width:1.0;"/><line style="stroke:#181818;stroke-width:1.0;stroke-dasharray:2.0,2.0;" x1="104" x2="269" y1="339.4922" y2="339.4922"/><text fill="#000000" font-family="sans-serif" font-size="13" font-weight="bold" lengthAdjust="spacing" textLength="9" x="116" y="334.4263">9</text><text fill="#000000" font-family="sans-serif" font-size="13" lengthAdjust="spacing" textLength="117" x="129" y="334.4263">SqlSessionFactory</text><!--SRC=[bP0z4i8W44PxJa6VyG8M5ZgcCZPfR1UoEipmvm95RYz9S2O9DdRiutsxi92Yiya89CRwj-un1ELi2p8w6iz9wG697qxyqTqkpZxLgx2cuKSkfZFRNqtw0X91pDrcrmC5P1jUYLzj0-jC7jY1zqZhjvYPN3KQj97jbL-n79BhrdzcXRB3mbf7Tp0OF4XaX36HBTyjnRAdKbHR_W00]--></g></svg>