<?xml version="1.0" encoding="us-ascii" standalone="no"?><svg xmlns="http://www.w3.org/2000/svg" xmlns:xlink="http://www.w3.org/1999/xlink" contentStyleType="text/css" height="545px" preserveAspectRatio="none" style="width:859px;height:545px;background:#FFFFFF;" version="1.1" viewBox="0 0 859 545" width="859px" zoomAndPan="magnify"><defs/><g><text fill="#000000" font-family="sans-serif" font-size="14" font-weight="bold" lengthAdjust="spacing" textLength="178" x="342.5" y="27.9951">SqlSessionFactory &#27880;&#20837;</text><rect fill="#FFFFFF" height="387.4609" style="stroke:#181818;stroke-width:1.0;" width="10" x="138" y="104.7266"/><rect fill="#FFFFFF" height="329.1953" style="stroke:#181818;stroke-width:1.0;" width="10" x="306" y="133.8594"/><rect fill="#FFFFFF" height="270.9297" style="stroke:#181818;stroke-width:1.0;" width="10" x="519" y="162.9922"/><rect fill="none" height="101.3984" style="stroke:#000000;stroke-width:1.5;" width="281" x="420" y="262.2578"/><line style="stroke:#181818;stroke-width:0.5;stroke-dasharray:5.0,5.0;" x1="143" x2="143" y1="73.5938" y2="510.1875"/><line style="stroke:#181818;stroke-width:0.5;stroke-dasharray:5.0,5.0;" x1="311" x2="311" y1="73.5938" y2="510.1875"/><line style="stroke:#181818;stroke-width:0.5;stroke-dasharray:5.0,5.0;" x1="524" x2="524" y1="73.5938" y2="510.1875"/><rect fill="#E2E2F0" height="30.2969" rx="2.5" ry="2.5" style="stroke:#181818;stroke-width:0.5;" width="176" x="55" y="42.2969"/><text fill="#000000" font-family="sans-serif" font-size="14" lengthAdjust="spacing" textLength="162" x="62" y="62.292">SqlSessionFactoryBean</text><rect fill="#E2E2F0" height="30.2969" rx="2.5" ry="2.5" style="stroke:#181818;stroke-width:0.5;" width="176" x="55" y="509.1875"/><text fill="#000000" font-family="sans-serif" font-size="14" lengthAdjust="spacing" textLength="162" x="62" y="529.1826">SqlSessionFactoryBean</text><rect fill="#E2E2F0" height="30.2969" rx="2.5" ry="2.5" style="stroke:#181818;stroke-width:0.5;" width="140" x="241" y="42.2969"/><text fill="#000000" font-family="sans-serif" font-size="14" lengthAdjust="spacing" textLength="126" x="248" y="62.292">SqlSessionFactory</text><rect fill="#E2E2F0" height="30.2969" rx="2.5" ry="2.5" style="stroke:#181818;stroke-width:0.5;" width="140" x="241" y="509.1875"/><text fill="#000000" font-family="sans-serif" font-size="14" lengthAdjust="spacing" textLength="126" x="248" y="529.1826">SqlSessionFactory</text><rect fill="#E2E2F0" height="30.2969" rx="2.5" ry="2.5" style="stroke:#181818;stroke-width:0.5;" width="188" x="430" y="42.2969"/><text fill="#000000" font-family="sans-serif" font-size="14" lengthAdjust="spacing" textLength="174" x="437" y="62.292">SqlSessionFactoryBuilder</text><rect fill="#E2E2F0" height="30.2969" rx="2.5" ry="2.5" style="stroke:#181818;stroke-width:0.5;" width="188" x="430" y="509.1875"/><text fill="#000000" font-family="sans-serif" font-size="14" lengthAdjust="spacing" textLength="174" x="437" y="529.1826">SqlSessionFactoryBuilder</text><rect fill="#FFFFFF" height="387.4609" style="stroke:#181818;stroke-width:1.0;" width="10" x="138" y="104.7266"/><rect fill="#FFFFFF" height="329.1953" style="stroke:#181818;stroke-width:1.0;" width="10" x="306" y="133.8594"/><rect fill="#FFFFFF" height="270.9297" style="stroke:#181818;stroke-width:1.0;" width="10" x="519" y="162.9922"/><polygon fill="#181818" points="126,100.7266,136,104.7266,126,108.7266,130,104.7266" style="stroke:#181818;stroke-width:1.0;"/><line style="stroke:#181818;stroke-width:1.0;" x1="0" x2="132" y1="104.7266" y2="104.7266"/><text fill="#000000" font-family="sans-serif" font-size="13" font-weight="bold" lengthAdjust="spacing" textLength="9" x="7" y="99.6606">1</text><text fill="#000000" font-family="sans-serif" font-size="13" lengthAdjust="spacing" textLength="52" x="20" y="99.6606">&#25163;&#21160;&#27880;&#20837;</text><polygon fill="#181818" points="294,129.8594,304,133.8594,294,137.8594,298,133.8594" style="stroke:#181818;stroke-width:1.0;"/><line style="stroke:#181818;stroke-width:1.0;" x1="148" x2="300" y1="133.8594" y2="133.8594"/><text fill="#000000" font-family="sans-serif" font-size="13" font-weight="bold" lengthAdjust="spacing" textLength="9" x="155" y="128.7935">2</text><text fill="#000000" font-family="sans-serif" font-size="13" font-weight="bold" lengthAdjust="spacing" textLength="73" x="168" y="128.7935">getObject</text><polygon fill="#181818" points="507,158.9922,517,162.9922,507,166.9922,511,162.9922" style="stroke:#181818;stroke-width:1.0;"/><line style="stroke:#181818;stroke-width:1.0;" x1="316" x2="513" y1="162.9922" y2="162.9922"/><text fill="#000000" font-family="sans-serif" font-size="13" font-weight="bold" lengthAdjust="spacing" textLength="9" x="323" y="157.9263">3</text><text fill="#000000" font-family="sans-serif" font-size="13" font-weight="bold" lengthAdjust="spacing" textLength="171" x="336" y="157.9263">buildSqlSessionFactory</text><line style="stroke:#181818;stroke-width:1.0;" x1="529" x2="571" y1="192.125" y2="192.125"/><line style="stroke:#181818;stroke-width:1.0;" x1="571" x2="571" y1="192.125" y2="205.125"/><line style="stroke:#181818;stroke-width:1.0;" x1="530" x2="571" y1="205.125" y2="205.125"/><polygon fill="#181818" points="540,201.125,530,205.125,540,209.125,536,205.125" style="stroke:#181818;stroke-width:1.0;"/><text fill="#000000" font-family="sans-serif" font-size="13" font-weight="bold" lengthAdjust="spacing" textLength="9" x="536" y="187.0591">4</text><text fill="#000000" font-family="sans-serif" font-size="13" lengthAdjust="spacing" textLength="115" x="549" y="187.0591">&#21152;&#36733; Configuration</text><line style="stroke:#181818;stroke-width:1.0;" x1="529" x2="571" y1="234.2578" y2="234.2578"/><line style="stroke:#181818;stroke-width:1.0;" x1="571" x2="571" y1="234.2578" y2="247.2578"/><line style="stroke:#181818;stroke-width:1.0;" x1="530" x2="571" y1="247.2578" y2="247.2578"/><polygon fill="#181818" points="540,243.2578,530,247.2578,540,251.2578,536,247.2578" style="stroke:#181818;stroke-width:1.0;"/><text fill="#000000" font-family="sans-serif" font-size="13" font-weight="bold" lengthAdjust="spacing" textLength="9" x="536" y="229.1919">5</text><text fill="#000000" font-family="sans-serif" font-size="13" lengthAdjust="spacing" textLength="303" x="549" y="229.1919">&#21152;&#36733; &#21508;&#31181;&#37197;&#32622;&#65288;&#21035;&#21517;&#36716;&#25442;&#22120;&#12289;&#25554;&#20214;&#12289;&#31867;&#22411;&#36716;&#25442;&#22120;&#31561;&#65289;</text><path d="M420,262.2578 L605,262.2578 L605,269.3906 L595,279.3906 L420,279.3906 L420,262.2578 " fill="#EEEEEE" style="stroke:#000000;stroke-width:1.5;"/><rect fill="none" height="101.3984" style="stroke:#000000;stroke-width:1.5;" width="281" x="420" y="262.2578"/><text fill="#000000" font-family="sans-serif" font-size="13" font-weight="bold" lengthAdjust="spacing" textLength="140" x="435" y="275.3247">XMLMapperBuilder</text><line style="stroke:#181818;stroke-width:1.0;" x1="529" x2="571" y1="300.5234" y2="300.5234"/><line style="stroke:#181818;stroke-width:1.0;" x1="571" x2="571" y1="300.5234" y2="313.5234"/><line style="stroke:#181818;stroke-width:1.0;" x1="530" x2="571" y1="313.5234" y2="313.5234"/><polygon fill="#181818" points="540,309.5234,530,313.5234,540,317.5234,536,313.5234" style="stroke:#181818;stroke-width:1.0;"/><text fill="#000000" font-family="sans-serif" font-size="13" font-weight="bold" lengthAdjust="spacing" textLength="9" x="536" y="295.4575">6</text><text fill="#000000" font-family="sans-serif" font-size="13" lengthAdjust="spacing" textLength="137" x="549" y="295.4575">&#21152;&#36733; mapper.xml &#25991;&#20214;</text><line style="stroke:#181818;stroke-width:1.0;" x1="529" x2="571" y1="342.6563" y2="342.6563"/><line style="stroke:#181818;stroke-width:1.0;" x1="571" x2="571" y1="342.6563" y2="355.6563"/><line style="stroke:#181818;stroke-width:1.0;" x1="530" x2="571" y1="355.6563" y2="355.6563"/><polygon fill="#181818" points="540,351.6563,530,355.6563,540,359.6563,536,355.6563" style="stroke:#181818;stroke-width:1.0;"/><text fill="#000000" font-family="sans-serif" font-size="13" font-weight="bold" lengthAdjust="spacing" textLength="9" x="536" y="337.5903">7</text><text fill="#000000" font-family="sans-serif" font-size="13" lengthAdjust="spacing" textLength="140" x="549" y="337.5903">&#21152;&#36733; mapper.java &#25991;&#20214;</text><line style="stroke:#181818;stroke-width:1.0;" x1="529" x2="571" y1="391.7891" y2="391.7891"/><line style="stroke:#181818;stroke-width:1.0;" x1="571" x2="571" y1="391.7891" y2="404.7891"/><line style="stroke:#181818;stroke-width:1.0;" x1="530" x2="571" y1="404.7891" y2="404.7891"/><polygon fill="#181818" points="540,400.7891,530,404.7891,540,408.7891,536,404.7891" style="stroke:#181818;stroke-width:1.0;"/><text fill="#000000" font-family="sans-serif" font-size="13" font-weight="bold" lengthAdjust="spacing" textLength="9" x="536" y="386.7231">8</text><text fill="#000000" font-family="sans-serif" font-size="13" lengthAdjust="spacing" textLength="30" x="549" y="386.7231">build</text><polygon fill="#181818" points="327,429.9219,317,433.9219,327,437.9219,323,433.9219" style="stroke:#181818;stroke-width:1.0;"/><line style="stroke:#181818;stroke-width:1.0;stroke-dasharray:2.0,2.0;" x1="321" x2="523" y1="433.9219" y2="433.9219"/><text fill="#000000" font-family="sans-serif" font-size="13" font-weight="bold" lengthAdjust="spacing" textLength="9" x="333" y="428.856">9</text><text fill="#000000" font-family="sans-serif" font-size="13" lengthAdjust="spacing" textLength="4" x="346" y="428.856">&#160;</text><polygon fill="#181818" points="159,459.0547,149,463.0547,159,467.0547,155,463.0547" style="stroke:#181818;stroke-width:1.0;"/><line style="stroke:#181818;stroke-width:1.0;stroke-dasharray:2.0,2.0;" x1="153" x2="310" y1="463.0547" y2="463.0547"/><text fill="#000000" font-family="sans-serif" font-size="13" font-weight="bold" lengthAdjust="spacing" textLength="18" x="165" y="457.9888">10</text><text fill="#000000" font-family="sans-serif" font-size="13" lengthAdjust="spacing" textLength="4" x="187" y="457.9888">&#160;</text><polygon fill="#181818" points="11,488.1875,1,492.1875,11,496.1875,7,492.1875" style="stroke:#181818;stroke-width:1.0;"/><line style="stroke:#181818;stroke-width:1.0;stroke-dasharray:2.0,2.0;" x1="5" x2="142" y1="492.1875" y2="492.1875"/><text fill="#000000" font-family="sans-serif" font-size="13" font-weight="bold" lengthAdjust="spacing" textLength="18" x="17" y="487.1216">11</text><text fill="#000000" font-family="sans-serif" font-size="13" lengthAdjust="spacing" textLength="97" x="39" y="487.1216">&#27880;&#20837; Spring&#23481;&#22120;</text><!--SRC=[IomjoSyhpKrABU8goIp9ILK8Bim9JYqkpipFSqjCBialgbHujdd5qzQbN5pHkdQOiawfYNdQsWfM2iywkvzshO2gnQfC0Pj-i5wR9Blqr1B_fApKv19ClLZrEPLcvgIa5i6q9u6u68guS6d3PoJGmATT2rxitQlWd9-NbfbUMfHO0bH4eLbF9xGyNzxxihNt-Tvrx_TqFErO_NH2xukzQvxrBdewSyNZXiPd_PEUxDu6P3pVkFlfl6wurFErdU_tT7Ab5-MN5YX4-Fhu9XOKf1P1pUTI00BA79OBDa-l8ZT7uTcqTg0Jg6TcLc9P8ipGrBmKSaCG7BTSHQabfKLvg1GqQIe45nHbvgK_NRSJ65u0]--></g></svg>