<?xml version="1.0" encoding="us-ascii" standalone="no"?><svg xmlns="http://www.w3.org/2000/svg" xmlns:xlink="http://www.w3.org/1999/xlink" contentStyleType="text/css" height="822px" preserveAspectRatio="none" style="width:1500px;height:822px;background:#FFFFFF;" version="1.1" viewBox="0 0 1500 822" width="1500px" zoomAndPan="magnify"><defs/><g><rect fill="#FFFFFF" height="701.5859" style="stroke:#181818;stroke-width:1.0;" width="10" x="166" y="67.4297"/><rect fill="#FFFFFF" height="601.1875" style="stroke:#181818;stroke-width:1.0;" width="10" x="312" y="138.6953"/><rect fill="#FFFFFF" height="542.9219" style="stroke:#181818;stroke-width:1.0;" width="10" x="481" y="167.8281"/><rect fill="#FFFFFF" height="484.6563" style="stroke:#181818;stroke-width:1.0;" width="10" x="625" y="196.9609"/><rect fill="#FFFFFF" height="380.9922" style="stroke:#181818;stroke-width:1.0;" width="10" x="764" y="271.4922"/><rect fill="#FFFFFF" height="307.5938" style="stroke:#181818;stroke-width:1.0;" width="10" x="914.5" y="315.7578"/><rect fill="#FFFFFF" height="234.1953" style="stroke:#181818;stroke-width:1.0;" width="10" x="1050.5" y="360.0234"/><rect fill="#FFFFFF" height="160.7969" style="stroke:#181818;stroke-width:1.0;" width="10" x="1176" y="404.2891"/><rect fill="#FFFFFF" height="87.3984" style="stroke:#181818;stroke-width:1.0;" width="10" x="1339" y="448.5547"/><rect fill="#FFFFFF" height="29.1328" style="stroke:#181818;stroke-width:1.0;" width="10" x="1465.5" y="477.6875"/><line style="stroke:#181818;stroke-width:0.5;stroke-dasharray:5.0,5.0;" x1="170.5" x2="170.5" y1="36.2969" y2="787.0156"/><line style="stroke:#181818;stroke-width:0.5;stroke-dasharray:5.0,5.0;" x1="316.5" x2="316.5" y1="36.2969" y2="787.0156"/><line style="stroke:#181818;stroke-width:0.5;stroke-dasharray:5.0,5.0;" x1="485.5" x2="485.5" y1="36.2969" y2="787.0156"/><line style="stroke:#181818;stroke-width:0.5;stroke-dasharray:5.0,5.0;" x1="629.5" x2="629.5" y1="36.2969" y2="787.0156"/><line style="stroke:#181818;stroke-width:0.5;stroke-dasharray:5.0,5.0;" x1="768.5" x2="768.5" y1="36.2969" y2="787.0156"/><line style="stroke:#181818;stroke-width:0.5;stroke-dasharray:5.0,5.0;" x1="919.5" x2="919.5" y1="36.2969" y2="787.0156"/><line style="stroke:#181818;stroke-width:0.5;stroke-dasharray:5.0,5.0;" x1="1055.5" x2="1055.5" y1="36.2969" y2="787.0156"/><line style="stroke:#181818;stroke-width:0.5;stroke-dasharray:5.0,5.0;" x1="1180.5" x2="1180.5" y1="36.2969" y2="787.0156"/><line style="stroke:#181818;stroke-width:0.5;stroke-dasharray:5.0,5.0;" x1="1343.5" x2="1343.5" y1="36.2969" y2="787.0156"/><line style="stroke:#181818;stroke-width:0.5;stroke-dasharray:5.0,5.0;" x1="1470.5" x2="1470.5" y1="36.2969" y2="787.0156"/><rect fill="#E2E2F0" height="30.2969" rx="2.5" ry="2.5" style="stroke:#181818;stroke-width:0.5;" width="103" x="119.5" y="5"/><text fill="#000000" font-family="sans-serif" font-size="14" lengthAdjust="spacing" textLength="89" x="126.5" y="24.9951">MapperProxy</text><rect fill="#E2E2F0" height="30.2969" rx="2.5" ry="2.5" style="stroke:#181818;stroke-width:0.5;" width="103" x="119.5" y="786.0156"/><text fill="#000000" font-family="sans-serif" font-size="14" lengthAdjust="spacing" textLength="89" x="126.5" y="806.0107">MapperProxy</text><rect fill="#E2E2F0" height="30.2969" rx="2.5" ry="2.5" style="stroke:#181818;stroke-width:0.5;" width="169" x="232.5" y="5"/><text fill="#000000" font-family="sans-serif" font-size="14" lengthAdjust="spacing" textLength="155" x="239.5" y="24.9951">MapperMethodInvoker</text><rect fill="#E2E2F0" height="30.2969" rx="2.5" ry="2.5" style="stroke:#181818;stroke-width:0.5;" width="169" x="232.5" y="786.0156"/><text fill="#000000" font-family="sans-serif" font-size="14" lengthAdjust="spacing" textLength="155" x="239.5" y="806.0107">MapperMethodInvoker</text><rect fill="#E2E2F0" height="30.2969" rx="2.5" ry="2.5" style="stroke:#181818;stroke-width:0.5;" width="149" x="411.5" y="5"/><text fill="#000000" font-family="sans-serif" font-size="14" lengthAdjust="spacing" textLength="135" x="418.5" y="24.9951">PlainMethodInvoker</text><rect fill="#E2E2F0" height="30.2969" rx="2.5" ry="2.5" style="stroke:#181818;stroke-width:0.5;" width="149" x="411.5" y="786.0156"/><text fill="#000000" font-family="sans-serif" font-size="14" lengthAdjust="spacing" textLength="135" x="418.5" y="806.0107">PlainMethodInvoker</text><rect fill="#E2E2F0" height="30.2969" rx="2.5" ry="2.5" style="stroke:#181818;stroke-width:0.5;" width="119" x="570.5" y="5"/><text fill="#000000" font-family="sans-serif" font-size="14" lengthAdjust="spacing" textLength="105" x="577.5" y="24.9951">MapperMethod</text><rect fill="#E2E2F0" height="30.2969" rx="2.5" ry="2.5" style="stroke:#181818;stroke-width:0.5;" width="119" x="570.5" y="786.0156"/><text fill="#000000" font-family="sans-serif" font-size="14" lengthAdjust="spacing" textLength="105" x="577.5" y="806.0107">MapperMethod</text><rect fill="#E2E2F0" height="30.2969" rx="2.5" ry="2.5" style="stroke:#181818;stroke-width:0.5;" width="139" x="699.5" y="5"/><text fill="#000000" font-family="sans-serif" font-size="14" lengthAdjust="spacing" textLength="125" x="706.5" y="24.9951">DefaultSqlSession</text><rect fill="#E2E2F0" height="30.2969" rx="2.5" ry="2.5" style="stroke:#181818;stroke-width:0.5;" width="139" x="699.5" y="786.0156"/><text fill="#000000" font-family="sans-serif" font-size="14" lengthAdjust="spacing" textLength="125" x="706.5" y="806.0107">DefaultSqlSession</text><rect fill="#E2E2F0" height="30.2969" rx="2.5" ry="2.5" style="stroke:#181818;stroke-width:0.5;" width="142" x="848.5" y="5"/><text fill="#000000" font-family="sans-serif" font-size="14" lengthAdjust="spacing" textLength="128" x="855.5" y="24.9951">MappedStatement</text><rect fill="#E2E2F0" height="30.2969" rx="2.5" ry="2.5" style="stroke:#181818;stroke-width:0.5;" width="142" x="848.5" y="786.0156"/><text fill="#000000" font-family="sans-serif" font-size="14" lengthAdjust="spacing" textLength="128" x="855.5" y="806.0107">MappedStatement</text><rect fill="#E2E2F0" height="30.2969" rx="2.5" ry="2.5" style="stroke:#181818;stroke-width:0.5;" width="110" x="1000.5" y="5"/><text fill="#000000" font-family="sans-serif" font-size="14" lengthAdjust="spacing" textLength="96" x="1007.5" y="24.9951">BaseExecutor</text><rect fill="#E2E2F0" height="30.2969" rx="2.5" ry="2.5" style="stroke:#181818;stroke-width:0.5;" width="110" x="1000.5" y="786.0156"/><text fill="#000000" font-family="sans-serif" font-size="14" lengthAdjust="spacing" textLength="96" x="1007.5" y="806.0107">BaseExecutor</text><rect fill="#E2E2F0" height="30.2969" rx="2.5" ry="2.5" style="stroke:#181818;stroke-width:0.5;" width="121" x="1120.5" y="5"/><text fill="#000000" font-family="sans-serif" font-size="14" lengthAdjust="spacing" textLength="107" x="1127.5" y="24.9951">SimpleExecutor</text><rect fill="#E2E2F0" height="30.2969" rx="2.5" ry="2.5" style="stroke:#181818;stroke-width:0.5;" width="121" x="1120.5" y="786.0156"/><text fill="#000000" font-family="sans-serif" font-size="14" lengthAdjust="spacing" textLength="107" x="1127.5" y="806.0107">SimpleExecutor</text><rect fill="#E2E2F0" height="30.2969" rx="2.5" ry="2.5" style="stroke:#181818;stroke-width:0.5;" width="185" x="1251.5" y="5"/><text fill="#000000" font-family="sans-serif" font-size="14" lengthAdjust="spacing" textLength="171" x="1258.5" y="24.9951">SimpleStatementHandler</text><rect fill="#E2E2F0" height="30.2969" rx="2.5" ry="2.5" style="stroke:#181818;stroke-width:0.5;" width="185" x="1251.5" y="786.0156"/><text fill="#000000" font-family="sans-serif" font-size="14" lengthAdjust="spacing" textLength="171" x="1258.5" y="806.0107">SimpleStatementHandler</text><rect fill="#E2E2F0" height="30.2969" rx="2.5" ry="2.5" style="stroke:#181818;stroke-width:0.5;" width="48" x="1446.5" y="5"/><text fill="#000000" font-family="sans-serif" font-size="14" lengthAdjust="spacing" textLength="34" x="1453.5" y="24.9951">JDBC</text><rect fill="#E2E2F0" height="30.2969" rx="2.5" ry="2.5" style="stroke:#181818;stroke-width:0.5;" width="48" x="1446.5" y="786.0156"/><text fill="#000000" font-family="sans-serif" font-size="14" lengthAdjust="spacing" textLength="34" x="1453.5" y="806.0107">JDBC</text><rect fill="#FFFFFF" height="701.5859" style="stroke:#181818;stroke-width:1.0;" width="10" x="166" y="67.4297"/><rect fill="#FFFFFF" height="601.1875" style="stroke:#181818;stroke-width:1.0;" width="10" x="312" y="138.6953"/><rect fill="#FFFFFF" height="542.9219" style="stroke:#181818;stroke-width:1.0;" width="10" x="481" y="167.8281"/><rect fill="#FFFFFF" height="484.6563" style="stroke:#181818;stroke-width:1.0;" width="10" x="625" y="196.9609"/><rect fill="#FFFFFF" height="380.9922" style="stroke:#181818;stroke-width:1.0;" width="10" x="764" y="271.4922"/><rect fill="#FFFFFF" height="307.5938" style="stroke:#181818;stroke-width:1.0;" width="10" x="914.5" y="315.7578"/><rect fill="#FFFFFF" height="234.1953" style="stroke:#181818;stroke-width:1.0;" width="10" x="1050.5" y="360.0234"/><rect fill="#FFFFFF" height="160.7969" style="stroke:#181818;stroke-width:1.0;" width="10" x="1176" y="404.2891"/><rect fill="#FFFFFF" height="87.3984" style="stroke:#181818;stroke-width:1.0;" width="10" x="1339" y="448.5547"/><rect fill="#FFFFFF" height="29.1328" style="stroke:#181818;stroke-width:1.0;" width="10" x="1465.5" y="477.6875"/><polygon fill="#181818" points="154,63.4297,164,67.4297,154,71.4297,158,67.4297" style="stroke:#181818;stroke-width:1.0;"/><line style="stroke:#181818;stroke-width:1.0;" x1="5" x2="160" y1="67.4297" y2="67.4297"/><text fill="#000000" font-family="sans-serif" font-size="13" font-weight="bold" lengthAdjust="spacing" textLength="9" x="12" y="62.3638">1</text><text fill="#000000" font-family="sans-serif" font-size="13" lengthAdjust="spacing" textLength="134" x="25" y="62.3638">&#25191;&#34892; Mapper &#20013;&#30340;&#26041;&#27861;</text><line style="stroke:#181818;stroke-width:1.0;" x1="176" x2="218" y1="96.5625" y2="96.5625"/><line style="stroke:#181818;stroke-width:1.0;" x1="218" x2="218" y1="96.5625" y2="109.5625"/><line style="stroke:#181818;stroke-width:1.0;" x1="177" x2="218" y1="109.5625" y2="109.5625"/><polygon fill="#181818" points="187,105.5625,177,109.5625,187,113.5625,183,109.5625" style="stroke:#181818;stroke-width:1.0;"/><text fill="#000000" font-family="sans-serif" font-size="13" font-weight="bold" lengthAdjust="spacing" textLength="9" x="183" y="91.4966">2</text><text fill="#000000" font-family="sans-serif" font-size="13" lengthAdjust="spacing" textLength="41" x="196" y="91.4966">invoke</text><polygon fill="#181818" points="300,134.6953,310,138.6953,300,142.6953,304,138.6953" style="stroke:#181818;stroke-width:1.0;"/><line style="stroke:#181818;stroke-width:1.0;" x1="176" x2="306" y1="138.6953" y2="138.6953"/><text fill="#000000" font-family="sans-serif" font-size="13" font-weight="bold" lengthAdjust="spacing" textLength="9" x="183" y="133.6294">3</text><text fill="#000000" font-family="sans-serif" font-size="13" lengthAdjust="spacing" textLength="92" x="196" y="133.6294">cachedInvoker</text><polygon fill="#181818" points="469,163.8281,479,167.8281,469,171.8281,473,167.8281" style="stroke:#181818;stroke-width:1.0;"/><line style="stroke:#181818;stroke-width:1.0;" x1="322" x2="475" y1="167.8281" y2="167.8281"/><text fill="#000000" font-family="sans-serif" font-size="13" font-weight="bold" lengthAdjust="spacing" textLength="9" x="329" y="162.7622">4</text><text fill="#000000" font-family="sans-serif" font-size="13" lengthAdjust="spacing" textLength="41" x="342" y="162.7622">invoke</text><polygon fill="#181818" points="613,192.9609,623,196.9609,613,200.9609,617,196.9609" style="stroke:#181818;stroke-width:1.0;"/><line style="stroke:#181818;stroke-width:1.0;" x1="491" x2="619" y1="196.9609" y2="196.9609"/><text fill="#000000" font-family="sans-serif" font-size="13" font-weight="bold" lengthAdjust="spacing" textLength="9" x="498" y="191.895">5</text><text fill="#000000" font-family="sans-serif" font-size="13" lengthAdjust="spacing" textLength="51" x="511" y="191.895">execute</text><polygon fill="#181818" points="752,267.4922,762,271.4922,752,275.4922,756,271.4922" style="stroke:#181818;stroke-width:1.0;"/><line style="stroke:#181818;stroke-width:1.0;" x1="635" x2="758" y1="271.4922" y2="271.4922"/><text fill="#000000" font-family="sans-serif" font-size="13" font-weight="bold" lengthAdjust="spacing" textLength="9" x="642" y="243.7271">6</text><text fill="#000000" font-family="sans-serif" font-size="13" lengthAdjust="spacing" textLength="36" x="655" y="221.0278">insert</text><text fill="#000000" font-family="sans-serif" font-size="13" lengthAdjust="spacing" textLength="45" x="655" y="236.1606">update</text><text fill="#000000" font-family="sans-serif" font-size="13" lengthAdjust="spacing" textLength="40" x="655" y="251.2935">delete</text><text fill="#000000" font-family="sans-serif" font-size="13" lengthAdjust="spacing" textLength="36" x="655" y="266.4263">query</text><polygon fill="#181818" points="902.5,311.7578,912.5,315.7578,902.5,319.7578,906.5,315.7578" style="stroke:#181818;stroke-width:1.0;"/><line style="stroke:#181818;stroke-width:1.0;" x1="774" x2="908.5" y1="315.7578" y2="315.7578"/><text fill="#000000" font-family="sans-serif" font-size="13" font-weight="bold" lengthAdjust="spacing" textLength="9" x="781" y="303.1255">7</text><text fill="#000000" font-family="sans-serif" font-size="13" lengthAdjust="spacing" textLength="45" x="794" y="295.5591">update</text><text fill="#000000" font-family="sans-serif" font-size="13" lengthAdjust="spacing" textLength="60" x="794" y="310.6919">selectList</text><polygon fill="#181818" points="1038.5,356.0234,1048.5,360.0234,1038.5,364.0234,1042.5,360.0234" style="stroke:#181818;stroke-width:1.0;"/><line style="stroke:#181818;stroke-width:1.0;" x1="924.5" x2="1044.5" y1="360.0234" y2="360.0234"/><text fill="#000000" font-family="sans-serif" font-size="13" font-weight="bold" lengthAdjust="spacing" textLength="9" x="931.5" y="347.3911">8</text><text fill="#000000" font-family="sans-serif" font-size="13" lengthAdjust="spacing" textLength="36" x="944.5" y="339.8247">query</text><text fill="#000000" font-family="sans-serif" font-size="13" lengthAdjust="spacing" textLength="45" x="944.5" y="354.9575">update</text><polygon fill="#181818" points="1164,400.2891,1174,404.2891,1164,408.2891,1168,404.2891" style="stroke:#181818;stroke-width:1.0;"/><line style="stroke:#181818;stroke-width:1.0;" x1="1060.5" x2="1170" y1="404.2891" y2="404.2891"/><text fill="#000000" font-family="sans-serif" font-size="13" font-weight="bold" lengthAdjust="spacing" textLength="9" x="1067.5" y="391.6567">9</text><text fill="#000000" font-family="sans-serif" font-size="13" lengthAdjust="spacing" textLength="63" x="1080.5" y="384.0903">doUpdate</text><text fill="#000000" font-family="sans-serif" font-size="13" lengthAdjust="spacing" textLength="54" x="1080.5" y="399.2231">doQuery</text><polygon fill="#181818" points="1327,444.5547,1337,448.5547,1327,452.5547,1331,448.5547" style="stroke:#181818;stroke-width:1.0;"/><line style="stroke:#181818;stroke-width:1.0;" x1="1186" x2="1333" y1="448.5547" y2="448.5547"/><text fill="#000000" font-family="sans-serif" font-size="13" font-weight="bold" lengthAdjust="spacing" textLength="18" x="1193" y="435.9224">10</text><text fill="#000000" font-family="sans-serif" font-size="13" lengthAdjust="spacing" textLength="45" x="1215" y="428.356">update</text><text fill="#000000" font-family="sans-serif" font-size="13" lengthAdjust="spacing" textLength="36" x="1215" y="443.4888">query</text><polygon fill="#181818" points="1453.5,473.6875,1463.5,477.6875,1453.5,481.6875,1457.5,477.6875" style="stroke:#181818;stroke-width:1.0;"/><line style="stroke:#181818;stroke-width:1.0;" x1="1349" x2="1459.5" y1="477.6875" y2="477.6875"/><text fill="#000000" font-family="sans-serif" font-size="13" font-weight="bold" lengthAdjust="spacing" textLength="18" x="1356" y="472.6216">11</text><text fill="#000000" font-family="sans-serif" font-size="13" lengthAdjust="spacing" textLength="4" x="1378" y="472.6216">&#160;</text><polygon fill="#181818" points="1360,502.8203,1350,506.8203,1360,510.8203,1356,506.8203" style="stroke:#181818;stroke-width:1.0;"/><line style="stroke:#181818;stroke-width:1.0;stroke-dasharray:2.0,2.0;" x1="1354" x2="1469.5" y1="506.8203" y2="506.8203"/><text fill="#000000" font-family="sans-serif" font-size="13" font-weight="bold" lengthAdjust="spacing" textLength="18" x="1366" y="501.7544">12</text><text fill="#000000" font-family="sans-serif" font-size="13" lengthAdjust="spacing" textLength="4" x="1388" y="501.7544">&#160;</text><polygon fill="#181818" points="1197,531.9531,1187,535.9531,1197,539.9531,1193,535.9531" style="stroke:#181818;stroke-width:1.0;"/><line style="stroke:#181818;stroke-width:1.0;stroke-dasharray:2.0,2.0;" x1="1191" x2="1343" y1="535.9531" y2="535.9531"/><text fill="#000000" font-family="sans-serif" font-size="13" font-weight="bold" lengthAdjust="spacing" textLength="18" x="1203" y="530.8872">13</text><text fill="#000000" font-family="sans-serif" font-size="13" lengthAdjust="spacing" textLength="4" x="1225" y="530.8872">&#160;</text><polygon fill="#181818" points="1071.5,561.0859,1061.5,565.0859,1071.5,569.0859,1067.5,565.0859" style="stroke:#181818;stroke-width:1.0;"/><line style="stroke:#181818;stroke-width:1.0;stroke-dasharray:2.0,2.0;" x1="1065.5" x2="1180" y1="565.0859" y2="565.0859"/><text fill="#000000" font-family="sans-serif" font-size="13" font-weight="bold" lengthAdjust="spacing" textLength="18" x="1077.5" y="560.02">14</text><text fill="#000000" font-family="sans-serif" font-size="13" lengthAdjust="spacing" textLength="4" x="1099.5" y="560.02">&#160;</text><polygon fill="#181818" points="935.5,590.2188,925.5,594.2188,935.5,598.2188,931.5,594.2188" style="stroke:#181818;stroke-width:1.0;"/><line style="stroke:#181818;stroke-width:1.0;stroke-dasharray:2.0,2.0;" x1="929.5" x2="1054.5" y1="594.2188" y2="594.2188"/><text fill="#000000" font-family="sans-serif" font-size="13" font-weight="bold" lengthAdjust="spacing" textLength="18" x="941.5" y="589.1528">15</text><text fill="#000000" font-family="sans-serif" font-size="13" lengthAdjust="spacing" textLength="4" x="963.5" y="589.1528">&#160;</text><polygon fill="#181818" points="785,619.3516,775,623.3516,785,627.3516,781,623.3516" style="stroke:#181818;stroke-width:1.0;"/><line style="stroke:#181818;stroke-width:1.0;stroke-dasharray:2.0,2.0;" x1="779" x2="918.5" y1="623.3516" y2="623.3516"/><text fill="#000000" font-family="sans-serif" font-size="13" font-weight="bold" lengthAdjust="spacing" textLength="18" x="791" y="618.2856">16</text><text fill="#000000" font-family="sans-serif" font-size="13" lengthAdjust="spacing" textLength="4" x="813" y="618.2856">&#160;</text><polygon fill="#181818" points="646,648.4844,636,652.4844,646,656.4844,642,652.4844" style="stroke:#181818;stroke-width:1.0;"/><line style="stroke:#181818;stroke-width:1.0;stroke-dasharray:2.0,2.0;" x1="640" x2="768" y1="652.4844" y2="652.4844"/><text fill="#000000" font-family="sans-serif" font-size="13" font-weight="bold" lengthAdjust="spacing" textLength="18" x="652" y="647.4185">17</text><text fill="#000000" font-family="sans-serif" font-size="13" lengthAdjust="spacing" textLength="4" x="674" y="647.4185">&#160;</text><polygon fill="#181818" points="502,677.6172,492,681.6172,502,685.6172,498,681.6172" style="stroke:#181818;stroke-width:1.0;"/><line style="stroke:#181818;stroke-width:1.0;stroke-dasharray:2.0,2.0;" x1="496" x2="629" y1="681.6172" y2="681.6172"/><text fill="#000000" font-family="sans-serif" font-size="13" font-weight="bold" lengthAdjust="spacing" textLength="18" x="508" y="676.5513">18</text><text fill="#000000" font-family="sans-serif" font-size="13" lengthAdjust="spacing" textLength="4" x="530" y="676.5513">&#160;</text><polygon fill="#181818" points="333,706.75,323,710.75,333,714.75,329,710.75" style="stroke:#181818;stroke-width:1.0;"/><line style="stroke:#181818;stroke-width:1.0;stroke-dasharray:2.0,2.0;" x1="327" x2="485" y1="710.75" y2="710.75"/><text fill="#000000" font-family="sans-serif" font-size="13" font-weight="bold" lengthAdjust="spacing" textLength="18" x="339" y="705.6841">19</text><text fill="#000000" font-family="sans-serif" font-size="13" lengthAdjust="spacing" textLength="4" x="361" y="705.6841">&#160;</text><polygon fill="#181818" points="187,735.8828,177,739.8828,187,743.8828,183,739.8828" style="stroke:#181818;stroke-width:1.0;"/><line style="stroke:#181818;stroke-width:1.0;stroke-dasharray:2.0,2.0;" x1="181" x2="316" y1="739.8828" y2="739.8828"/><text fill="#000000" font-family="sans-serif" font-size="13" font-weight="bold" lengthAdjust="spacing" textLength="18" x="193" y="734.8169">20</text><text fill="#000000" font-family="sans-serif" font-size="13" lengthAdjust="spacing" textLength="4" x="215" y="734.8169">&#160;</text><polygon fill="#181818" points="11,765.0156,1,769.0156,11,773.0156,7,769.0156" style="stroke:#181818;stroke-width:1.0;"/><line style="stroke:#181818;stroke-width:1.0;stroke-dasharray:2.0,2.0;" x1="5" x2="170" y1="769.0156" y2="769.0156"/><text fill="#000000" font-family="sans-serif" font-size="13" font-weight="bold" lengthAdjust="spacing" textLength="18" x="17" y="763.9497">21</text><text fill="#000000" font-family="sans-serif" font-size="13" lengthAdjust="spacing" textLength="4" x="39" y="763.9497">&#160;</text><!--SRC=[fP2_JiCm48TtFuNtg2_0058f4Y0g5KLiNKnyg1QEdTZdgjrPAdM5WOs9YOa5tWS57eFOZKl-T6CwwUxxxdSsSwYLos_1478oEgPJLXHWPaQlrab2ZsYrUVrvsJPj-lNnzltyK3rzLk-Ff8NIhbbxGYtrFHncfe0BpIy2OK9Anh85n0uvG7bv9fbGGxT96axxWO665MGEePFXmGdSCISnBMKArWgjcjqM3CwLApX3c2iE4dmj7PWr6JZxH9vYpUUWCAo9kgtr3A-4HTB3l3bc5ix2UNhtif0ImqbxxF5Kv8Ni2bpVn4FrTJYn2_rf- -1pfhXiVZAUMRRKFkXNN4x6fqb23A0pwf_b5m00]--></g></svg>